<svg width="29" height="28" viewBox="0 0 29 28" fill="none" xmlns="http://www.w3.org/2000/svg">
<g id="bookmarks-user">
<path id="bookmarks-user_2" d="M23.8405 5.3316V21L23.8323 20.9836V21L21.0919 19.432C20.9823 19.3702 20.9156 19.2535 20.9156 19.1287C20.9156 19.1287 20.9156 9.92243 20.9156 9.88277C20.8678 6.98127 19.1119 5.25116 16.1789 5.24999H10.0972C9.89417 5.24999 9.83357 5.07272 9.85107 4.87089C9.99691 3.18622 10.9932 2.33333 12.8307 2.33333H20.8339H20.8421C22.8371 2.33333 23.8405 3.3366 23.8405 5.3316ZM19.1773 9.99955V25.6667L12.1773 21.6674L5.17728 25.6667V9.99955C5.17728 7.99988 6.17717 6.99999 8.17684 6.99999H16.1766C18.1774 6.99999 19.1773 7.99988 19.1773 9.99955ZM9.96073 12.1334C9.96073 13.356 10.9558 14.3501 12.1773 14.3501C13.3988 14.3501 14.3938 13.356 14.3938 12.1334C14.3938 10.9107 13.3988 9.91666 12.1773 9.91666C10.9558 9.91666 9.96073 10.9107 9.96073 12.1334ZM15.7006 18.3703C15.7006 17.01 14.7067 15.6334 12.8073 15.6334H11.5495C9.64902 15.6334 8.65621 17.01 8.65621 18.3703V18.6667C8.65621 18.9887 8.91754 19.25 9.23954 19.25H15.1184C15.4404 19.25 15.7018 18.9887 15.7018 18.6667V18.3703H15.7006Z" fill="white"/>
</g>
</svg>
