<svg width="63" height="63" viewBox="0 0 63 63" fill="none" xmlns="http://www.w3.org/2000/svg">
<g id="Subtract">
<path fill-rule="evenodd" clip-rule="evenodd" d="M0.276825 50.2859C6.78887 58.0579 16.5674 63 27.5001 63C47.1062 63 63 47.1062 63 27.5001C63 16.5674 58.0579 6.78888 50.2859 0.276833C55.4521 6.44257 58.5625 14.3894 58.5625 23.0626C58.5625 42.6687 42.6687 58.5625 23.0626 58.5625C14.3894 58.5625 6.44256 55.4521 0.276825 50.2859Z" fill="#F9F9F9"/>
<path fill-rule="evenodd" clip-rule="evenodd" d="M0.276825 50.2859C6.78887 58.0579 16.5674 63 27.5001 63C47.1062 63 63 47.1062 63 27.5001C63 16.5674 58.0579 6.78888 50.2859 0.276833C55.4521 6.44257 58.5625 14.3894 58.5625 23.0626C58.5625 42.6687 42.6687 58.5625 23.0626 58.5625C14.3894 58.5625 6.44256 55.4521 0.276825 50.2859Z" fill="black" fill-opacity="0.03"/>
</g>
</svg>
